<svg width="48" height="48" viewBox="0 0 48 48" fill="none" xmlns="http://www.w3.org/2000/svg">
<path d="M43.896 23.368L39.896 11.368C39.7642 10.9694 39.51 10.6226 39.1695 10.377C38.8291 10.1313 38.4198 9.99941 38 10H32V14H36.558L39.226 22H30C27.794 22 26 23.794 26 26H22C22 23.794 20.206 22 18 22H8.774L11.442 14H16V10H10C9.58027 9.99971 9.17112 10.1318 8.83074 10.3773C8.49036 10.6229 8.23606 10.9696 8.104 11.368L4.104 23.368L4.128 23.376C4.04969 23.5751 4.00639 23.7862 4 24V32C4 35.308 6.692 38 10 38H16C19.308 38 22 35.308 22 32V30H26V32C26 35.308 28.692 38 32 38H38C41.308 38 44 35.308 44 32V24C43.9931 23.7858 43.9505 23.5742 43.874 23.374L43.896 23.368ZM18 32C18 33.102 17.104 34 16 34H10C8.896 34 8 33.102 8 32V26H18V32ZM40 32C40 33.102 39.104 34 38 34H32C30.896 34 30 33.102 30 32V26H40V32Z" fill="#09BDD2"/>
</svg>
